<?xml version="1.0" encoding="utf-8"?>
<!-- Generated by IcoMoon.io -->
<!DOCTYPE svg PUBLIC "-//W3C//DTD SVG 1.1//EN" "http://www.w3.org/Graphics/SVG/1.1/DTD/svg11.dtd">
<svg version="1.1" xmlns="http://www.w3.org/2000/svg" xmlns:xlink="http://www.w3.org/1999/xlink" width="1024" height="1024" viewBox="0 0 1024 1024">
<g>
</g>
	<path d="M0 384v384h768v-768h-768v384zM578.56 284.16l59.392 58.368-125.952 125.952-126.464 125.952-259.072-253.952 58.368-57.344 58.368-57.856h275.968l59.392 58.88z" />
	<path d="M343.040 289.28l-37.888 38.4h152.576l-37.888-38.4c-20.992-20.992-38.4-38.4-38.4-38.4s-17.408 17.408-38.4 38.4z" />
	<path d="M189.952 371.712c9.216 10.24 49.152 48.128 87.552 84.992l70.656 66.56-23.040-52.224c-12.8-28.672-30.208-67.072-38.4-84.992l-14.848-32.768h-99.84l17.92 18.432z" />
	<path d="M304.128 369.664c23.040 54.784 76.288 171.008 79.872 174.592 2.048 2.56 14.336-20.48 27.136-51.2 12.8-30.208 31.232-74.24 41.472-97.792l17.92-41.984h-173.568l7.168 16.384z" />
	<path d="M489.472 367.104c-11.264 22.016-65.024 151.552-63.488 152.576 1.024 1.024 37.888-36.352 82.432-82.432l81.408-83.968h-46.592c-45.568 0-46.592 0.512-53.76 13.824z" />
</svg>
